<svg width="97" height="36" viewBox="0 0 97 36" fill="none" xmlns="http://www.w3.org/2000/svg">
<g clip-path="url(#clip0_4869_71669)">
<path d="M44.1671 10.0421C43.9292 9.56771 43.5327 9.25143 43.1362 9.01422C42.6605 8.77701 42.1054 8.61887 41.5503 8.61887C40.4402 8.61887 39.6473 8.93515 39.0129 9.64678C38.3785 10.3584 38.0614 11.3072 38.0614 12.4933C38.0614 13.7584 38.3785 14.7072 39.0922 15.4189C39.8058 16.1305 40.6781 16.4468 41.8675 16.4468C42.6605 16.4468 43.3741 16.2096 43.9292 15.8142C44.4843 15.4189 44.8807 14.7863 45.1979 13.9956H40.9953V11.5445H48.2111V14.6282C47.9733 15.4189 47.5768 16.2096 46.9424 16.9212C46.3873 17.6328 45.5944 18.1863 44.7222 18.6607C43.8499 19.1351 42.8191 19.2933 41.6296 19.2933C40.2816 19.2933 39.0922 18.977 38.0614 18.4235C37.0305 17.87 36.1583 17.0003 35.6032 15.9724C35.0481 14.9444 34.731 13.7584 34.731 12.4142C34.731 11.07 35.0481 9.88399 35.6032 8.77701C36.1583 7.74911 37.0305 6.87934 38.0614 6.32585C39.0129 5.85143 40.2023 5.53516 41.5503 5.53516C43.2155 5.53516 44.5636 5.9305 45.6737 6.7212C46.7838 7.5119 47.4975 8.61887 47.894 9.96306H44.1671V10.0421Z" fill="#C92031"/>
<path d="M52.4138 18.819C51.5416 18.3446 50.9072 17.712 50.4314 16.8423C49.9557 15.9725 49.7178 15.0237 49.7178 13.9167C49.7178 12.8097 49.9557 11.8609 50.4314 10.9911C50.9072 10.1213 51.6209 9.48878 52.4138 9.01436C53.2861 8.53994 54.2376 8.30273 55.2684 8.30273C56.2993 8.30273 57.2508 8.53994 58.1231 9.01436C58.9953 9.48878 59.6297 10.1213 60.1054 10.9911C60.5812 11.8609 60.8191 12.8097 60.8191 13.9167C60.8191 15.0237 60.5812 15.9725 60.1054 16.8423C59.6297 17.712 58.916 18.3446 58.0438 18.819C57.1715 19.2934 56.22 19.5306 55.1891 19.5306C54.1583 19.5306 53.2068 19.2934 52.4138 18.819ZM56.8543 15.8934C57.3301 15.419 57.4887 14.7864 57.4887 13.9167C57.4887 13.0469 57.2508 12.4144 56.8543 11.9399C56.4579 11.4655 55.9028 11.2283 55.2684 11.2283C54.6341 11.2283 54.079 11.4655 53.6825 11.9399C53.2861 12.4144 53.0482 13.0469 53.0482 13.9167C53.0482 14.7864 53.2861 15.419 53.6825 15.8934C54.079 16.3678 54.6341 16.6051 55.2684 16.6051C55.8235 16.6051 56.3786 16.3678 56.8543 15.8934Z" fill="#C92031"/>
<path d="M67.0837 16.2098L69.4625 8.46094H72.9515L69.1453 19.2935H65.022L61.2158 8.46094H64.7841L67.0837 16.2098Z" fill="#C92031"/>
<path d="M53.9999 22.0605L50.4316 35.6605H46.3875L44.2466 26.7257L42.0263 35.6605H38.0615L34.6519 22.0605H38.2201L40.2025 31.9443L42.6607 22.0605H46.3082L48.6078 31.9443L50.5902 22.0605H53.9999V22.0605Z" fill="#C92031"/>
<path d="M54.7133 27.3583C55.1098 26.4885 55.6649 25.856 56.4578 25.3815C57.1715 24.9071 57.9644 24.6699 58.916 24.6699C59.7089 24.6699 60.3433 24.8281 60.8983 25.1443C61.4534 25.4606 61.9292 25.856 62.2464 26.3304V24.8281H65.5768V35.6606H62.2464V34.1583C61.9292 34.6327 61.4534 35.1071 60.8983 35.3443C60.3433 35.6606 59.6296 35.8187 58.916 35.8187C58.0437 35.8187 57.2508 35.5815 56.5371 35.1071C55.8235 34.6327 55.2684 34.0001 54.7926 33.1304C54.3961 32.2606 54.1583 31.3118 54.1583 30.2048C54.079 29.1769 54.3168 28.149 54.7133 27.3583ZM61.4534 28.3071C60.9776 27.8327 60.4226 27.5955 59.7882 27.5955C59.1539 27.5955 58.5988 27.8327 58.123 28.3071C57.6472 28.7815 57.4094 29.4141 57.4094 30.2839C57.4094 31.0746 57.6472 31.7862 58.123 32.2606C58.5988 32.735 59.1539 32.9722 59.7882 32.9722C60.4226 32.9722 60.9776 32.735 61.4534 32.2606C61.9292 31.7862 62.1671 31.1536 62.1671 30.2839C62.1671 29.4932 61.9292 28.7815 61.4534 28.3071Z" fill="#C92031"/>
<path d="M70.89 21.3496V35.7403H67.5596V21.3496H70.89Z" fill="#C92031"/>
<path d="M76.2821 21.3496V35.7403H72.9517V21.3496H76.2821Z" fill="#C92031"/>
<path d="M88.8103 31.0746H81.3566C81.4359 31.7862 81.5945 32.2606 81.9909 32.656C82.3874 33.0513 82.8632 33.2094 83.4182 33.2094C84.2112 33.2094 84.8456 32.8932 85.1627 32.1815H88.6517C88.4931 32.8932 88.176 33.5257 87.7002 34.0792C87.2244 34.6327 86.6693 35.1071 85.9557 35.4234C85.242 35.7397 84.4491 35.8978 83.5768 35.8978C82.546 35.8978 81.5945 35.6606 80.7222 35.1862C79.9293 34.7118 79.2156 34.0792 78.8191 33.2094C78.3434 32.3397 78.1055 31.3908 78.1055 30.2839C78.1055 29.1769 78.3434 28.149 78.8191 27.3583C79.2949 26.4885 79.9293 25.856 80.7222 25.3815C81.5152 24.9071 82.4667 24.6699 83.5768 24.6699C84.6077 24.6699 85.5592 24.9071 86.3522 25.3025C87.1451 25.7769 87.7795 26.3304 88.2553 27.2002C88.731 27.9908 88.9689 28.9397 88.9689 30.0467C88.8896 30.442 88.8896 30.7583 88.8103 31.0746ZM85.4799 29.256C85.4799 28.7025 85.3213 28.2281 84.9249 27.9118C84.5284 27.5955 84.0526 27.4374 83.4975 27.4374C82.9425 27.4374 82.4667 27.5955 82.0702 27.9118C81.6738 28.2281 81.4359 28.7025 81.3566 29.256H85.4799Z" fill="#C92031"/>
<path d="M96.6607 32.8942V35.7407H94.9955C93.8061 35.7407 92.8545 35.4244 92.2202 34.8709C91.5858 34.3174 91.1893 33.2895 91.1893 32.0244V27.6756H89.8413V24.9081H91.1893V22.2988H94.5197V24.9081H96.6607V27.6756H94.5197V32.0244C94.5197 32.3407 94.599 32.5779 94.7576 32.736C94.9162 32.8942 95.1541 32.9732 95.5506 32.9732H96.6607V32.8942Z" fill="#C92031"/>
<path d="M18.8722 26.8837C18.8722 24.9069 20.4581 23.3256 22.4405 23.3256H28.3084V19.5302C28.3084 18.6604 27.5947 17.9488 26.7225 17.9488H25.6123L26.8018 16.6837C27.5947 15.8139 27.5947 14.4698 26.7225 13.6791L21.0132 8.38139L18.793 2.37209C18.4758 1.50232 17.6828 0.948836 16.8106 0.948836C16.5727 0.948836 16.3348 1.02791 16.0969 1.10698L14.0352 1.89767L12.6872 0.553488C12.2907 0.158139 11.815 0 11.2599 0C10.7048 0 10.1498 0.237209 9.67401 0.711627L6.42291 4.19069H4.837C4.75771 4.19069 4.04405 4.19069 3.3304 4.50697C2.14097 4.98139 1.5859 5.85116 1.50661 7.0372V7.27441C1.18943 7.66976 0.951542 8.46046 1.34802 9.56743C1.6652 10.5163 1.90308 10.9907 1.90308 11.1488C1.5859 11.8605 0.792952 13.9163 2.53744 16.3674C2.93392 16.9209 3.2511 17.1581 3.64758 17.3163C3.64758 16.7628 3.80617 16.3674 3.88546 16.1302C3.96476 15.9721 4.44053 15.4186 6.26432 15.4186H9.67401C9.7533 15.4186 9.7533 15.4186 9.8326 15.4186C8.08811 16.6046 6.89868 17.3163 6.18502 17.6325L5.55066 17.9488H1.5859C0.713656 17.9488 0 18.6604 0 19.5302V34.3162C0 35.186 0.713656 35.8976 1.5859 35.8976H26.7225C27.5947 35.8976 28.3084 35.186 28.3084 34.3162V30.5209H22.4405C20.4581 30.4418 18.8722 28.8604 18.8722 26.8837ZM2.93392 11.7023C3.2511 12.0977 3.88546 12.6511 5.39207 12.6511C7.77093 12.6511 8.1674 10.3581 5.78855 10.3581H4.51982C3.80617 10.3581 3.2511 10.5953 3.01322 10.7535C2.93392 10.5953 2.77533 10.2 2.45815 9.25115C2.22026 8.69766 2.14097 8.06511 2.61674 7.8279C2.77533 7.74883 3.2511 7.59069 3.48899 7.59069L3.80617 7.51162V6.32557H3.40969C3.17181 6.32557 2.93392 6.40464 2.77533 6.48371C3.17181 5.29767 4.75771 5.29767 4.837 5.29767H7.61233C7.61233 5.37674 7.69163 5.37674 7.69163 5.45581C7.69163 5.53488 7.69163 5.53488 7.77093 5.61395C7.77093 5.69302 7.85022 5.69302 7.85022 5.77209C8.08811 6.16744 8.56388 6.48371 9.03965 6.48371C9.67401 6.48371 10.2291 6.08837 10.3877 5.45581C10.3877 5.37674 10.467 5.37674 10.467 5.37674H15.7797C16.3348 5.37674 16.7313 5.53488 16.8899 5.77209C17.0485 6.08837 16.8899 6.56278 16.7313 6.95813C16.5727 7.19534 16.4141 7.43255 16.1762 7.51162C16.0176 7.59069 15.859 7.74883 15.6211 7.8279C15.6211 7.8279 15.6211 7.8279 15.5419 7.8279C15.3833 7.90697 15.1454 7.90697 14.9868 7.90697C14.8282 7.90697 14.7489 7.90697 14.6696 7.90697C14.5903 7.90697 14.511 7.90697 14.4317 7.90697H14.3524C14.3524 7.90697 14.3524 7.90697 14.2731 7.90697C13.9559 7.90697 13.6388 7.90697 13.4009 7.8279L13.6388 8.38139C14.2731 9.72557 14.1938 11.1488 13.4802 12.3349C12.6872 13.6 11.3392 14.3116 9.8326 14.3116H6.34361C4.44053 14.3116 3.56828 14.8651 3.17181 15.3395C2.14097 13.5209 2.69604 12.1767 2.93392 11.7023ZM8.2467 3.87441L10.5463 1.42325C10.9427 1.02791 11.5771 1.02791 11.9736 1.34418L12.8458 2.21395L8.2467 3.87441ZM26.0088 14.4698C26.2467 14.6279 26.326 14.9442 26.326 15.1814C26.326 15.4186 26.2467 15.7349 26.0881 15.893L24.5022 17.6325L21.9648 10.6744L26.0088 14.4698ZM10.7048 16.2093C12.0529 15.2604 13.0837 14.3116 13.4802 13.9953C13.4802 13.9953 13.9559 13.6 14.3524 12.9674C15.1454 11.7814 15.304 10.3581 14.9868 9.01394C15.859 8.93487 16.5727 8.53953 17.0485 8.06511V17.9488H8.08811C8.72247 17.5535 9.59471 17 10.7048 16.2093ZM18.1586 5.61395C17.9207 4.98139 17.3656 4.4279 16.7313 4.26976C16.5727 4.19069 16.3348 4.19069 16.1762 4.19069H10.8634L16.5727 2.13488C17.0485 1.97674 17.6828 2.21395 17.8414 2.76744L23.3921 18.0279H18.2379V6.32557C18.2379 6.08837 18.2379 5.85116 18.1586 5.61395Z" fill="#C92031"/>
<path d="M28.3084 24.4316H22.4406C21.0926 24.4316 19.9824 25.5386 19.9824 26.8828C19.9824 28.227 21.0926 29.334 22.4406 29.334H28.3084C28.7842 29.334 29.1807 28.9386 29.1807 28.4642V25.3014C29.26 24.827 28.7842 24.4316 28.3084 24.4316ZM22.4406 27.7526C21.9648 27.7526 21.5683 27.3572 21.5683 26.8828C21.5683 26.4084 21.9648 26.013 22.4406 26.013C22.9163 26.013 23.3128 26.4084 23.3128 26.8828C23.3921 27.3572 22.9956 27.7526 22.4406 27.7526Z" fill="#C92031"/>
</g>
<defs>
<clipPath id="clip0_4869_71669">
<rect width="97" height="35.8976" fill="white"/>
</clipPath>
</defs>
</svg>
