<svg width="161" height="33" viewBox="0 0 161 33" fill="none" xmlns="http://www.w3.org/2000/svg">
<path d="M8.4375 25.3125C12.2656 25.3125 15.625 23.125 15.625 18.8281C15.625 14.6094 12.375 13.1406 9.28125 11.8594C6.45312 10.6719 3.75 9.59375 3.75 6.6875C3.75 4.04688 5.92188 2.6875 8.25 2.6875C10.2344 2.6875 11.7344 3.28125 13.5781 5.23438L14.9688 3.82812C13.3125 1.96875 11.1719 0.6875 8.20312 0.6875C4.64062 0.6875 1.64062 2.9375 1.64062 6.82812C1.64062 10.8281 4.78125 12.2344 8.04688 13.6094C10.8438 14.7969 13.5312 15.9531 13.5312 18.8906C13.5312 21.6406 11.2344 23.3125 8.29688 23.3125C5.67188 23.3125 3.60938 22.0312 2.01562 20L0.4375 21.5781C2.25 23.7344 5.17188 25.3125 8.4375 25.3125ZM25.4463 25.3125C29.2275 25.3125 31.9306 23.1875 31.9306 19.5V8.45312H29.9463V19.4531C29.9463 22.0781 28.0088 23.3438 25.4463 23.3438C22.915 23.3438 20.9463 22.0781 20.9463 19.4531V8.45312H18.9619V19.5C18.9619 23.2031 21.6806 25.3125 25.4463 25.3125ZM36.33 32.7812H38.3613V21.7031C39.7519 23.875 42.2206 25.3125 45.205 25.3125C49.7363 25.3125 53.58 21.4688 53.58 16.7188C53.58 11.9844 49.7363 8.14062 45.205 8.14062C42.2206 8.14062 39.7519 9.57812 38.3613 11.75V8.45312H36.33V32.7812ZM44.955 23.3438C41.2831 23.3438 38.3613 20.3906 38.3613 16.7188C38.3613 13.0781 41.2988 10.125 44.955 10.125C48.5956 10.125 51.5488 13.0781 51.5488 16.7188C51.5488 20.375 48.5956 23.3438 44.955 23.3438ZM56.9637 32.7812H58.995V21.7031C60.3856 23.875 62.8544 25.3125 65.8387 25.3125C70.37 25.3125 74.2137 21.4688 74.2137 16.7188C74.2137 11.9844 70.37 8.14062 65.8387 8.14062C62.8544 8.14062 60.3856 9.57812 58.995 11.75V8.45312H56.9637V32.7812ZM65.5887 23.3438C61.9169 23.3438 58.995 20.3906 58.995 16.7188C58.995 13.0781 61.9325 10.125 65.5887 10.125C69.2294 10.125 72.1825 13.0781 72.1825 16.7188C72.1825 20.375 69.2294 23.3438 65.5887 23.3438ZM77.5975 25H79.6288V1H77.5975V25ZM95.3875 8.45312L90.0125 22.3594L84.4344 8.45312H82.1687L88.8406 24.6562L85.5906 32.7812H87.7625L97.6687 8.45312H95.3875ZM118.161 25H123.02L113.864 1H108.457L99.3169 25H104.176L105.957 20.0781H116.379L118.161 25ZM107.379 16.1406L111.176 5.65625L114.957 16.1406H107.379ZM126.543 25H130.996V1H126.543V25ZM136.012 25H140.465V1H136.012V25ZM155.746 8.45312L151.934 19.7969L148.106 8.45312H143.215L149.574 24.0156L146.106 32.7812H150.684L160.418 8.45312H155.746Z" fill="white"/>
</svg>
