<svg width="168" height="32" viewBox="0 0 168 32" fill="none" xmlns="http://www.w3.org/2000/svg">
<path d="M28.6115 20.6236L20.2909 28.9441C17.5502 31.6848 13.1168 31.6848 10.3761 28.9441L2.05551 20.6236C-0.685171 17.8829 -0.685171 13.4495 2.05551 10.7088L9.78495 2.97938L8.71913 1.91356C8.37879 1.57322 8.62061 1 9.0953 1H15.3828C15.5708 1 15.7231 1.15226 15.7231 1.34035V7.62777C15.7231 8.10246 15.1499 8.3443 14.8095 8.00395L13.7437 6.93813L7.00844 13.6734C5.91575 14.7661 5.91575 16.5394 7.00844 17.6321L13.3496 23.9733C14.4423 25.066 16.2157 25.066 17.3084 23.9733L24.0437 17.238L25.002 18.1964C25.3424 18.5367 25.9156 18.2949 25.9156 17.8202V12.5449C25.9156 12.3568 25.7633 12.2045 25.5752 12.2045H20.2999C19.8252 12.2045 19.5833 12.7777 19.9237 13.1181L20.882 14.0764L16.3232 18.6353C15.7768 19.1816 14.8901 19.1816 14.3438 18.6353L12.3644 16.6559C11.8181 16.1095 11.8181 15.2228 12.3644 14.6765L17.5144 9.52654C20.2551 6.78587 24.6885 6.78587 27.4292 9.52654L28.6115 10.7088C31.3522 13.4495 31.3522 17.8829 28.6115 20.6236Z" fill="white"/>
<path d="M47.5547 8.9367C48.3518 9.3666 48.9698 9.93086 49.3908 10.6295V8.50679H53.9854V23.473C53.9854 24.8523 53.7167 26.1062 53.1614 27.2258C52.6151 28.3453 51.7822 29.232 50.6626 29.8948C49.543 30.5576 48.1548 30.8889 46.4799 30.8889C44.2587 30.8889 42.4585 30.3695 41.0792 29.3216C39.6999 28.2737 38.9117 26.8496 38.7146 25.0673H43.2556C43.3989 25.6405 43.7392 26.0883 44.2766 26.4197C44.814 26.7511 45.4768 26.9123 46.265 26.9123C47.2143 26.9123 47.9667 26.6436 48.5309 26.0883C49.0952 25.5419 49.3818 24.6732 49.3818 23.473V21.3503C48.934 22.0489 48.316 22.6222 47.5278 23.061C46.7397 23.4999 45.8171 23.7238 44.7603 23.7238C43.5243 23.7238 42.4047 23.4014 41.4016 22.7655C40.3985 22.1295 39.6103 21.2249 39.0281 20.0517C38.446 18.8784 38.1504 17.5259 38.1504 15.9854C38.1504 14.4449 38.446 13.0925 39.0281 11.9281C39.6103 10.7638 40.3985 9.86816 41.4016 9.24121C42.4047 8.61426 43.5243 8.30078 44.7603 8.30078C45.8171 8.30078 46.7397 8.51574 47.5457 8.94565L47.5547 8.9367ZM48.4414 13.2895C47.8055 12.6268 47.0263 12.2954 46.1127 12.2954C45.1991 12.2954 44.4289 12.6267 43.793 13.2716C43.1571 13.9254 42.8346 14.83 42.8346 15.9675C42.8346 17.105 43.1571 18.0185 43.793 18.6903C44.4289 19.362 45.2081 19.6934 46.1127 19.6934C47.0173 19.6934 47.7965 19.362 48.4414 18.6992C49.0773 18.0364 49.3908 17.1318 49.3908 15.9854C49.3908 14.839 49.0683 13.9344 48.4414 13.2716V13.2895Z" fill="white"/>
<path d="M59.0998 22.7736C57.9265 22.1466 57.004 21.251 56.3322 20.0867C55.6605 18.9223 55.3291 17.5609 55.3291 16.0025C55.3291 14.4441 55.6694 13.1096 56.3501 11.9363C57.0308 10.763 57.9623 9.86735 59.1446 9.23145C60.3268 8.60449 61.6524 8.29102 63.1212 8.29102C64.5901 8.29102 65.9157 8.60449 67.0979 9.23145C68.2802 9.8584 69.2116 10.763 69.8923 11.9363C70.573 13.1096 70.9134 14.471 70.9134 16.0025C70.9134 17.5341 70.5641 18.9044 69.8744 20.0687C69.1848 21.242 68.2443 22.1466 67.0531 22.7736C65.8619 23.4005 64.5364 23.714 63.0675 23.714C61.5986 23.714 60.2731 23.4005 59.0998 22.7736ZM65.3066 18.7701C65.9246 18.1252 66.2291 17.2027 66.2291 16.0025C66.2291 14.8024 65.9336 13.8798 65.3335 13.235C64.7334 12.5901 63.99 12.2677 63.1212 12.2677C62.2525 12.2677 61.4822 12.5901 60.8911 13.226C60.2999 13.8619 60.0044 14.7934 60.0044 16.0025C60.0044 17.2116 60.2999 18.1252 60.8821 18.7701C61.4643 19.4149 62.1898 19.7374 63.0765 19.7374C63.9631 19.7374 64.6976 19.4149 65.3156 18.7701H65.3066Z" fill="white"/>
<path d="M78.4906 19.1999L81.7418 8.50586H86.632L81.3119 23.4989H75.6424L70.3223 8.50586H75.2394L78.4906 19.1999Z" fill="white"/>
<path d="M89.972 23.157C89.0584 22.7629 88.3329 22.2165 87.8045 21.509C87.2761 20.8014 86.9805 19.9953 86.9268 19.0818H89.5062C89.5779 19.8341 89.9272 20.4432 90.5631 20.9179C91.19 21.3925 92.023 21.6344 93.044 21.6344C93.9934 21.6344 94.7458 21.4284 95.2921 21.0074C95.8385 20.5865 96.1161 20.058 96.1161 19.4221C96.1161 18.7862 95.8205 18.2757 95.2384 17.9533C94.6562 17.6308 93.7516 17.3173 92.5246 17.0039C91.414 16.7083 90.5004 16.4128 89.8018 16.1172C89.1032 15.8216 88.4941 15.3649 87.9926 14.7737C87.491 14.1826 87.2402 13.4034 87.2402 12.4271C87.2402 11.6569 87.4641 10.9583 87.9299 10.3134C88.3867 9.6775 89.0315 9.16698 89.8734 8.79081C90.7153 8.41464 91.6737 8.22656 92.7485 8.22656C94.4144 8.22656 95.7578 8.64751 96.7789 9.48941C97.7999 10.3313 98.3463 11.4777 98.4269 12.9466H95.928C95.8743 12.1584 95.5608 11.5315 94.9786 11.0568C94.3965 10.5821 93.6352 10.3403 92.6589 10.3403C91.7633 10.3403 91.0467 10.5284 90.5183 10.9135C89.9899 11.2986 89.7212 11.8002 89.7212 12.4182C89.7212 12.9108 89.8824 13.3138 90.2048 13.6363C90.5273 13.9587 90.9303 14.2095 91.4139 14.4065C91.8976 14.5946 92.5693 14.8095 93.4292 15.0514C94.5039 15.3469 95.3817 15.6335 96.0624 15.9112C96.7341 16.1978 97.3163 16.6188 97.7999 17.183C98.2836 17.7473 98.5344 18.4907 98.5523 19.4042C98.5523 20.2282 98.3283 20.9626 97.8716 21.6254C97.4148 22.2792 96.7699 22.7987 95.937 23.1749C95.104 23.551 94.1457 23.7391 93.0709 23.7391C91.9155 23.7391 90.8855 23.5421 89.972 23.148V23.157Z" fill="white"/>
<path d="M113.187 8.47852V23.4985H110.697V21.2773C110.222 22.0475 109.56 22.6476 108.709 23.0686C107.858 23.4985 106.917 23.7134 105.896 23.7134C104.723 23.7134 103.675 23.4716 102.744 22.988C101.812 22.5043 101.078 21.7788 100.54 20.8115C100.003 19.8442 99.7344 18.662 99.7344 17.2737V8.47852H102.197V16.9513C102.197 18.4291 102.574 19.5666 103.317 20.3637C104.06 21.1608 105.09 21.5549 106.389 21.5549C107.688 21.5549 108.771 21.1429 109.542 20.3189C110.312 19.495 110.697 18.3037 110.697 16.7274V8.47852H113.187Z" fill="white"/>
<path d="M119.914 9.09614C120.89 8.52293 122.028 8.23633 123.326 8.23633C124.625 8.23633 125.87 8.55875 126.954 9.19466C128.037 9.83057 128.897 10.7352 129.515 11.8906C130.133 13.0549 130.447 14.3984 130.447 15.9299C130.447 17.4615 130.133 18.796 129.515 19.9872C128.897 21.1784 128.037 22.1009 126.954 22.7547C125.87 23.4085 124.652 23.7399 123.326 23.7399C122.001 23.7399 120.917 23.4533 119.941 22.8801C118.965 22.3069 118.221 21.5904 117.711 20.7306V30.6275H115.221V8.47816H117.711V11.2457C118.203 10.3859 118.938 9.66935 119.914 9.09614ZM127.222 12.9743C126.766 12.1324 126.148 11.4965 125.368 11.0576C124.589 10.6187 123.738 10.4038 122.807 10.4038C121.875 10.4038 121.051 10.6277 120.272 11.0755C119.493 11.5233 118.875 12.1682 118.409 13.0191C117.943 13.8699 117.711 14.8551 117.711 15.9657C117.711 17.0763 117.943 18.0884 118.409 18.9393C118.875 19.7901 119.493 20.435 120.272 20.8828C121.051 21.3307 121.893 21.5546 122.807 21.5546C123.72 21.5546 124.589 21.3307 125.368 20.8828C126.148 20.435 126.766 19.7901 127.222 18.9393C127.679 18.0884 127.903 17.0853 127.903 15.9389C127.903 14.7925 127.679 13.8162 127.222 12.9832V12.9743Z" fill="white"/>
<path d="M136.797 9.09614C137.773 8.52293 138.91 8.23633 140.209 8.23633C141.508 8.23633 142.753 8.55875 143.836 9.19466C144.92 9.83057 145.78 10.7352 146.398 11.8906C147.016 13.0549 147.33 14.3984 147.33 15.9299C147.33 17.4615 147.016 18.796 146.398 19.9872C145.78 21.1784 144.92 22.1009 143.836 22.7547C142.753 23.4085 141.535 23.7399 140.209 23.7399C138.884 23.7399 137.8 23.4533 136.824 22.8801C135.847 22.3069 135.104 21.5904 134.593 20.7306V30.6275H132.104V8.47816H134.593V11.2457C135.086 10.3859 135.82 9.66935 136.797 9.09614ZM144.105 12.9743C143.648 12.1324 143.03 11.4965 142.251 11.0576C141.472 10.6187 140.621 10.4038 139.69 10.4038C138.758 10.4038 137.934 10.6277 137.155 11.0755C136.376 11.5233 135.758 12.1682 135.292 13.0191C134.826 13.8699 134.593 14.8551 134.593 15.9657C134.593 17.0763 134.826 18.0884 135.292 18.9393C135.758 19.7901 136.376 20.435 137.155 20.8828C137.934 21.3307 138.776 21.5546 139.69 21.5546C140.603 21.5546 141.472 21.3307 142.251 20.8828C143.03 20.435 143.648 19.7901 144.105 18.9393C144.562 18.0884 144.786 17.0853 144.786 15.9389C144.786 14.7925 144.562 13.8162 144.105 12.9832V12.9743Z" fill="white"/>
<path d="M151.476 3.2207V23.4981H148.986V3.2207H151.476Z" fill="white"/>
<path d="M167.562 8.47852L158.516 30.5741H155.937L158.892 23.3373L152.838 8.47852H155.605L160.317 20.6503L164.974 8.47852H167.553H167.562Z" fill="white"/>
</svg>
