<?xml version="1.0" standalone="no"?>
<!DOCTYPE svg PUBLIC "-//W3C//DTD SVG 20010904//EN"
 "http://www.w3.org/TR/2001/REC-SVG-20010904/DTD/svg10.dtd">
<svg version="1.0" xmlns="http://www.w3.org/2000/svg"
 width="284.000000pt" height="240.000000pt" viewBox="0 0 284.000000 240.000000"
 preserveAspectRatio="xMidYMid meet">
<metadata>
Created by potrace 1.16, written by Peter Selinger 2001-2019
</metadata>
<g transform="translate(0.000000,240.000000) scale(0.100000,-0.100000)"
fill="#000000" stroke="none">
<path d="M1326 2368 c-19 -18 -324 -508 -677 -1088 -603 -989 -644 -1058 -647
-1107 -5 -63 10 -87 81 -136 l53 -37 1281 0 1280 0 59 38 c71 46 87 73 82 138
-3 45 -62 146 -646 1104 -354 580 -659 1070 -678 1088 -30 29 -40 32 -94 32
-54 0 -64 -3 -94 -32z m150 -632 c34 -34 788 -1278 792 -1306 2 -15 -4 -36
-16 -50 l-20 -25 -812 0 -812 0 -20 25 c-12 14 -18 35 -16 50 4 23 750 1261
787 1304 34 40 79 41 117 2z"/>
<path d="M1322 1565 c-17 -14 -33 -38 -37 -53 -7 -35 33 -645 46 -696 15 -57
55 -89 102 -83 87 12 94 34 112 349 20 343 19 427 -1 456 -24 35 -68 52 -133
52 -49 0 -65 -4 -89 -25z"/>
<path d="M1396 640 c-50 -15 -96 -73 -96 -120 0 -36 32 -91 64 -112 49 -30
128 -21 169 21 28 27 32 38 32 85 0 61 -24 98 -82 122 -36 16 -46 16 -87 4z"/>
</g>
</svg>
