<svg width="24" 
  height="24" 
  viewBox="0 0 24 24" 
  fill="none" 
  xmlns="http://www.w3.org/2000/svg">
  <g clip-path="url(#clip0)">
    <path fill-rule="evenodd" 
      clip-rule="evenodd" 
      d="M13.5852 22.8826V22.8585L12.4402 0.495917C12.4334 0.350843 12.3691 0.214417 12.2615 0.116651C12.2027 0.0632117 12.1336 0.023716 12.0593 0H11.7253C11.7027 0.0072255 11.6805 0.015928 11.6589 0.0260713C11.5937 0.0566775 11.5352 0.0998013 11.4867 0.152981C11.3888 0.260381 11.3376 0.40222 11.3444 0.547294V22.8826C11.3444 23.1788 11.4623 23.4629 11.6721 23.6723C11.8819 23.8818 12.1664 23.9995 12.4631 23.9995C12.7598 23.9995 13.0444 23.8818 13.2542 23.6723C13.464 23.4629 13.5818 23.1788 13.5818 22.8826H13.5852ZM1.5 6.37304V17.723C1.50044 17.94 1.58709 18.1479 1.74093 18.3012C1.89476 18.4545 2.10322 18.5406 2.32056 18.5406C2.42831 18.5406 2.53501 18.5194 2.63457 18.4782C2.73412 18.437 2.82458 18.3767 2.90078 18.3006C2.97697 18.2246 3.03741 18.1342 3.07865 18.0348C3.11989 17.9354 3.14111 17.8289 3.14111 17.7213V6.37304C3.14111 6.15577 3.05466 5.94739 2.90078 5.79375C2.74689 5.64011 2.53818 5.55379 2.32056 5.55379C2.10293 5.55379 1.89422 5.64011 1.74034 5.79375C1.58645 5.94739 1.5 6.15577 1.5 6.37304ZM22.811 6.18299C22.776 6.03681 22.7012 5.90175 22.593 5.79375C22.4391 5.64011 22.2304 5.55379 22.0128 5.55379C21.7952 5.55379 21.5864 5.64011 21.4326 5.79375C21.2787 5.94739 21.1922 6.15577 21.1922 6.37304V11.8554H17.91V19.6178C17.91 19.8351 17.9965 20.0435 18.1503 20.1971C18.3042 20.3508 18.5129 20.4371 18.7306 20.4371C18.9482 20.4371 19.1569 20.3508 19.3108 20.1971C19.4647 20.0435 19.5511 19.8351 19.5511 19.6178V13.4939H21.1922V17.723C21.1922 17.9403 21.2787 18.1487 21.4326 18.3023C21.5864 18.4559 21.7952 18.5423 22.0128 18.5423C22.2304 18.5423 22.4391 18.4559 22.593 18.3023C22.7012 18.1943 22.776 18.0592 22.811 17.9131V6.18299ZM16.1028 2.0433C16.2077 2.14803 16.2667 2.29007 16.2667 2.43818H16.265V21.5093C16.265 21.7264 16.1786 21.9347 16.0248 22.0882C15.871 22.2417 15.6625 22.328 15.445 22.328C15.2275 22.328 15.019 22.2417 14.8652 22.0882C14.7114 21.9347 14.625 21.7264 14.625 21.5093L15.148 2.43818C15.148 2.29007 15.2069 2.14803 15.3118 2.0433C15.4167 1.93857 15.559 1.87973 15.7073 1.87973C15.8557 1.87973 15.9979 1.93857 16.1028 2.0433ZM19.5511 4.48047C19.5511 4.26319 19.4647 4.05482 19.3108 3.90118C19.1569 3.74754 18.9482 3.66122 18.7306 3.66122C18.5129 3.66122 18.3042 3.74754 18.1503 3.90118C17.9965 4.05482 17.91 4.26319 17.91 4.48047V10.2197H19.5511V4.48047ZM8.30311 2.01078C8.45699 1.85714 8.6657 1.77083 8.88333 1.77083C9.10095 1.77083 9.30966 1.85714 9.46355 2.01078C9.61743 2.16442 9.70388 2.3728 9.70388 2.59008V21.5087C9.70388 21.726 9.61743 21.9344 9.46355 22.088C9.30966 22.2417 9.10095 22.328 8.88333 22.328C8.6657 22.328 8.45699 22.2417 8.30311 22.088C8.14923 21.9344 8.06277 21.726 8.06277 21.5087V2.59008C8.06277 2.3728 8.14923 2.16442 8.30311 2.01078ZM6.42225 11.8554H4.78226V19.6179C4.78226 19.8351 4.86871 20.0435 5.02259 20.1971C5.17648 20.3508 5.38519 20.4371 5.60281 20.4371C5.82044 20.4371 6.02915 20.3508 6.18303 20.1971C6.33692 20.0435 6.42337 19.8351 6.42337 19.6179V11.8554H6.42225ZM5.02259 3.90118C5.17648 3.74754 5.38519 3.66122 5.60281 3.66122C5.71066 3.66137 5.81743 3.68274 5.917 3.72412C6.01657 3.7655 6.107 3.82606 6.1831 3.90236C6.25921 3.97866 6.3195 4.06918 6.36054 4.16877C6.40157 4.26835 6.42254 4.37503 6.42225 4.48271V10.2197H4.78226V4.48047C4.78226 4.26319 4.86871 4.05482 5.02259 3.90118Z" 
      fill="#CCCCCC" />
  </g>
  <defs>
    <clipPath id="clip0">
      <rect x="1.5" 
        width="21.3333" 
        height="24" 
        fill="white" />
    </clipPath>
  </defs>
</svg>
